<svg id="svg" version="1.1" xmlns="http://www.w3.org/2000/svg" xmlns:xlink="http://www.w3.org/1999/xlink" width="400" height="400" viewBox="0, 0, 400,400"><g id="svgg"><path id="path0" d="M276.364 17.373 C 232.590 31.542,241.854 95.864,287.686 95.981 C 318.720 96.061,337.609 64.777,323.457 36.736 C 315.447 20.865,293.480 11.833,276.364 17.373 M237.705 105.014 C 233.846 106.392,229.016 109.379,226.805 111.753 C 224.438 114.296,161.678 210.226,160.702 212.793 C 159.824 215.104,159.795 219.729,160.645 221.965 C 161.280 223.636,141.599 253.662,140.079 253.341 C 139.783 253.279,133.869 249.294,126.936 244.485 C 109.436 232.347,109.480 232.367,101.091 232.369 C 93.127 232.371,89.006 234.004,84.290 239.028 C 78.895 244.776,34.857 308.925,33.337 313.250 C 30.001 322.741,32.476 334.724,39.300 342.127 C 43.099 346.248,42.937 346.263,45.224 341.600 C 55.693 320.254,84.797 314.029,104.235 328.977 C 107.767 331.693,103.346 337.278,142.375 280.787 L 175.748 232.484 179.059 231.518 C 183.653 230.179,184.137 229.561,210.167 191.826 C 222.759 173.573,233.160 158.735,233.279 158.855 C 233.399 158.974,231.463 169.672,228.978 182.627 C 222.507 216.360,222.576 226.799,229.367 241.091 C 233.374 249.524,306.165 376.929,308.249 379.158 C 319.080 390.737,339.666 380.375,336.143 365.116 C 335.721 363.284,322.899 332.945,307.650 297.695 L 279.925 233.605 287.963 190.745 C 296.475 145.353,297.065 140.429,294.944 132.459 C 291.438 119.289,279.736 107.745,266.889 104.785 C 262.107 103.683,240.966 103.849,237.705 105.014 M301.513 157.896 C 301.326 158.453,299.500 167.909,297.455 178.909 C 295.409 189.909,293.608 199.299,293.453 199.775 C 293.159 200.674,336.468 236.481,340.565 238.727 C 350.343 244.088,362.372 234.917,359.914 223.975 C 358.860 219.285,358.548 218.974,334.909 199.101 C 322.509 188.677,311.793 179.617,311.096 178.968 C 310.400 178.320,308.180 173.230,306.164 167.659 C 302.223 156.768,302.028 156.359,301.513 157.896 M213.066 269.578 L 206.205 293.339 184.498 326.487 C 158.489 366.206,159.769 363.910,160.124 370.198 C 160.604 378.692,165.308 383.396,173.802 383.876 C 182.422 384.363,181.477 385.304,209.065 348.724 L 233.485 316.344 239.340 303.256 C 242.560 296.057,245.090 289.696,244.961 289.120 C 244.645 287.705,220.833 245.870,220.327 245.841 C 220.108 245.828,216.840 256.510,213.066 269.578 M71.914 336.963 C 51.810 344.464,50.186 371.795,69.240 381.969 C 74.313 384.677,86.210 384.426,91.493 381.500 C 108.357 372.157,108.357 347.739,91.493 338.531 C 86.905 336.026,76.631 335.203,71.914 336.963 " stroke="none" fill="#fff" fill-rule="evenodd"></path></g></svg>
